<!DOCTYPE svg PUBLIC "-//W3C//DTD SVG 1.1//EN" "http://www.w3.org/Graphics/SVG/1.1/DTD/svg11.dtd">

<!-- Uploaded to: SVG Repo, www.svgrepo.com, Transformed by: SVG Repo Mixer Tools -->
<svg fill="#582f0e" height="25px" width="25px" version="1.1" id="Layer_1" xmlns="http://www.w3.org/2000/svg" xmlns:xlink="http://www.w3.org/1999/xlink" viewBox="0 0 512.00 512.00" xml:space="preserve" stroke="#582f0e" transform="matrix(1, 0, 0, 1, 0, 0)rotate(0)" stroke-width="0.00512">

<g id="SVGRepo_bgCarrier" stroke-width="0"/>

<g id="SVGRepo_tracerCarrier" stroke-linecap="round" stroke-linejoin="round" stroke="#e8caab" stroke-width="102.4"> <g> <g> <path d="M0,0.266v511.467h512V0.266H0z M240.327,91.005h31.347v190.986h-31.347V91.005z M256,436.668 c-85.295,0-154.687-69.392-154.687-154.676c0-41.326,16.091-80.165,45.307-109.38l22.162,22.162 c-23.291,23.291-36.122,54.272-36.122,87.218c0,68.002,55.327,123.329,123.34,123.329s123.34-55.327,123.34-123.329 c0-32.946-12.831-63.927-36.122-87.218l22.162-22.162c29.215,29.215,45.307,68.054,45.307,109.38 C410.687,367.276,341.295,436.668,256,436.668z"/> </g> </g> </g>

<g id="SVGRepo_iconCarrier"> <g> <g> <path d="M0,0.266v511.467h512V0.266H0z M240.327,91.005h31.347v190.986h-31.347V91.005z M256,436.668 c-85.295,0-154.687-69.392-154.687-154.676c0-41.326,16.091-80.165,45.307-109.38l22.162,22.162 c-23.291,23.291-36.122,54.272-36.122,87.218c0,68.002,55.327,123.329,123.34,123.329s123.34-55.327,123.34-123.329 c0-32.946-12.831-63.927-36.122-87.218l22.162-22.162c29.215,29.215,45.307,68.054,45.307,109.38 C410.687,367.276,341.295,436.668,256,436.668z"/> </g> </g> </g>

</svg>